<svg xmlns="http://www.w3.org/2000/svg" width="2400" height="1600" viewBox="0 0 2400 1600"><defs><linearGradient id="s" x2="0" y2="1"><stop stop-color="#e99c79"/><stop offset=".6" stop-color="#f8d5a0"/><stop offset="1" stop-color="#7497a2"/></linearGradient><linearGradient id="o" x2="0" y2="1"><stop stop-color="#377e98"/><stop offset="1" stop-color="#123c59"/></linearGradient></defs><rect width="2400" height="1600" fill="url(#s)"/><circle cx="520" cy="520" r="190" fill="#fff0b0" opacity=".9"/><path d="M0 710q430-90 870 10t820 0 710-10v890H0Z" fill="url(#o)"/><g fill="none" stroke="#c7edf0" stroke-width="24" opacity=".75"><path d="M0 930q410-90 800 0t800 0 800 0"/><path d="M0 1130q410-90 800 0t800 0 800 0"/></g><path d="M1570 1600q-70-470 90-820l210-390 160 450 370 290v470Z" fill="#182f3d"/><path d="m1868 393 47 133 110 90-160-20-102 82 39-151Z" fill="#f3ede0"/><text x="120" y="1460" fill="white" font-family="sans-serif" font-size="92" font-weight="700">写真 2 — 海岸</text></svg>
